<svg width="66" height="66" viewBox="0 0 66 66" fill="none" xmlns="http://www.w3.org/2000/svg">
<g opacity="0.2">
<path fill-rule="evenodd" clip-rule="evenodd" d="M60.5 33C60.5 17.82 48.1525 5.5 33 5.5L32.2306 5.51057C17.4059 5.91845 5.5 18.0773 5.5 33C5.5 48.1525 17.82 60.5 33 60.5C48.1525 60.5 60.5 48.1525 60.5 33ZM27.555 44C26.7575 43.175 26.7575 41.8825 27.5825 41.085L35.695 33L27.5825 24.915C26.7575 24.1175 26.7575 22.7975 27.555 22C28.38 21.175 29.6725 21.175 30.47 22L40.0675 31.5425C40.4525 31.9275 40.6725 32.45 40.6725 33C40.6725 33.55 40.4525 34.0725 40.0675 34.4575L30.47 44C30.085 44.4125 29.5625 44.605 29.04 44.605C28.49 44.605 27.9675 44.4125 27.555 44Z" fill="#2F4065"/>
</g>
</svg>
