<svg width="24" height="24" viewBox="0 0 24 24" fill="none" xmlns="http://www.w3.org/2000/svg">
<g id="Iconly/Curved/Edit Square">
<g id="Edit Square">
<path id="Stroke 1" d="M12.0002 2.75012C5.0632 2.75012 2.7502 5.06312 2.7502 12.0001C2.7502 18.9371 5.0632 21.2501 12.0002 21.2501C18.9372 21.2501 21.2502 18.9371 21.2502 12.0001" stroke="#2F4065" stroke-width="1.5" stroke-linecap="round" stroke-linejoin="round"/>
<path id="Stroke 3" fill-rule="evenodd" clip-rule="evenodd" d="M19.5285 4.30388V4.30388C18.5355 3.42488 17.0185 3.51688 16.1395 4.50988C16.1395 4.50988 11.7705 9.44488 10.2555 11.1579C8.73849 12.8699 9.85049 15.2349 9.85049 15.2349C9.85049 15.2349 12.3545 16.0279 13.8485 14.3399C15.3435 12.6519 19.7345 7.69288 19.7345 7.69288C20.6135 6.69988 20.5205 5.18288 19.5285 4.30388Z" stroke="#2F4065" stroke-width="1.5" stroke-linecap="round" stroke-linejoin="round"/>
<path id="Stroke 5" d="M15.009 5.80078L18.604 8.98378" stroke="#2F4065" stroke-width="1.5" stroke-linecap="round" stroke-linejoin="round"/>
</g>
</g>
</svg>
